/* XPM */
static char *eba4f80b07254c3af88d8bf118d69e08Jr7xhD9d1RKAnjPH[] = {
/* columns rows colors chars-per-pixel */
"64 64 15 1 ",
"  c #47AE6E",
". c #78FFAB",
"X c #6DEE9E",
"o c #6CEB9B",
"O c #6DED9D",
"+ c #4DB875",
"@ c #4BB674",
"# c #60D88E",
"$ c #69E799",
"% c #4FBC78",
"& c #52C17C",
"* c #68E697",
"= c #64DE92",
"- c #71F5A3",
"; c #6FF1A0",
/* pixels */
"                                                                ",
"                                                                ",
"                                                                ",
"                                                                ",
"                                                                ",
"                                                                ",
"                                                                ",
"                                                                ",
"        ................................................        ",
"        ................................................        ",
"        ................................................        ",
"        ................................................        ",
"        ................................................        ",
"        ................................................        ",
"        ................................................        ",
"        ................................................        ",
"        ................................................        ",
"        ................................................        ",
"        ................................................        ",
"        ................................................        ",
"        .................OoooooooooooooX................        ",
"        .................@             +................        ",
"        .................@             +................        ",
"        .................Ooooooooooo#  +................        ",
"        ............................$  +................        ",
"        ............................$  +................        ",
"        ............................$  +................        ",
"        ............................$  +................        ",
"        ............................$  +................        ",
"        ............................$  +................        ",
"        .................*&&&&&&&&&&%  +................        ",
"        .................=             +................        ",
"        .................=             +................        ",
"        ............................$  +................        ",
"        ............................$  +................        ",
"        ............................$  +................        ",
"        ............................$  +................        ",
"        ............................$  +................        ",
"        ............................$  +................        ",
"        ............................$  +................        ",
"        ............................$  +................        ",
"        ................-&&&&&&&&&&&%  +................        ",
"        ................;              +................        ",
"        ................;              +................        ",
"        ................................................        ",
"        ................................................        ",
"        ................................................        ",
"        ................................................        ",
"        ................................................        ",
"        ................................................        ",
"        ................................................        ",
"        ................................................        ",
"        ................................................        ",
"        ................................................        ",
"        ................................................        ",
"        ................................................        ",
"                                                                ",
"                                                                ",
"                                                                ",
"                                                                ",
"                                                                ",
"                                                                ",
"                                                                ",
"                                                                "
};
