/* XPM */
static char *_da6df90bd8744a69af4b8d6d187b007Y8aXTgUErVJMLTvY[] = {
/* columns rows colors chars-per-pixel */
"64 64 45 1 ",
"  c #436AB1",
". c #659CFF",
"X c #5E92EF",
"o c #5C8FEB",
"O c #6299FA",
"+ c #6096F6",
"@ c #5D91EE",
"# c #4973C0",
"$ c #5C8EEA",
"% c #4973C1",
"& c #4770BB",
"* c #5A8BE6",
"= c #649CFF",
"- c #4771BD",
"; c #5889E2",
": c #446CB5",
"> c #649BFE",
", c #466FB9",
"< c #5584DB",
"1 c #5686DD",
"2 c #4A75C3",
"3 c #6499FC",
"4 c #446DB6",
"5 c #5D91EF",
"6 c #5382D8",
"7 c #4D7ACA",
"8 c #6298FA",
"9 c #436BB3",
"0 c #4269B1",
"q c #5F94F3",
"w c #517FD3",
"e c #4F7DCF",
"r c #6197F7",
"t c #4F7CCE",
"y c #527FD4",
"u c #4E78C9",
"i c #5483D8",
"p c #5B8EEA",
"a c #5B8FEB",
"s c #4872BE",
"d c #517ED0",
"f c #426AB1",
"g c #5A8CE7",
"h c #5C90ED",
"j c #4C77C6",
/* pixels */
"                                                                ",
"                                                                ",
"                                                                ",
"                                                                ",
"                                                                ",
"                                                                ",
"                                                                ",
"                                                                ",
"        ................................................        ",
"        ................................................        ",
"        ................................................        ",
"        ................................................        ",
"        ................................................        ",
"        ................................................        ",
"        ................................................        ",
"        ................................................        ",
"        ................................................        ",
"        ................................................        ",
"        ................................................        ",
"        ................................................        ",
"        ...............XooO.........+ooo@...............        ",
"        ...............#  $.........%   &...............        ",
"        ...............#  $........*    &...............        ",
"        ...............#  $.......=-    &...............        ",
"        ...............#  $.......;  :  &...............        ",
"        ...............#  $......>,  <  &...............        ",
"        ...............#  $......1  2X  &...............        ",
"        ...............#  $.....34  5X  &...............        ",
"        ...............#  $.....6  7.5  &...............        ",
"        ...............#  $....89 0q.5  &...............        ",
"        ...............#  $....w  e..5  &...............        ",
"        ...............#  $...r   r..5  &...............        ",
"        ...............#  $...t  y...5  &...............        ",
"        ...............#  $..q0 98...5  &...............        ",
"        ...............#  $..u  i....5  &...............        ",
"        ...............#  $.5  43....5  &...............        ",
"        ...............#  $.2  1.....5  &...............        ",
"        ...............#  $p  ,>.....5  &...............        ",
"        ...............%  as  ;......5  &...............        ",
"        ...............%  d  -=......5  &...............        ",
"        ...............#  f  g.......5  &...............        ",
"        ...............#    %........5  &...............        ",
"        ...............#    h........5  &...............        ",
"        ...............#   j.........5  &...............        ",
"        ................................................        ",
"        ................................................        ",
"        ................................................        ",
"        ................................................        ",
"        ................................................        ",
"        ................................................        ",
"        ................................................        ",
"        ................................................        ",
"        ................................................        ",
"        ................................................        ",
"        ................................................        ",
"        ................................................        ",
"                                                                ",
"                                                                ",
"                                                                ",
"                                                                ",
"                                                                ",
"                                                                ",
"                                                                ",
"                                                                "
};
