/* XPM */
static char *ca7d3052308345e69b5d9bdd4c1d09cdtGx3pRx1IRGHpCUK[] = {
/* columns rows colors chars-per-pixel */
"64 64 2 1 ",
"  c black",
". c #FF7800",
/* pixels */
"        ........        ........        ........        ........",
"        ........        ........        ........        ........",
"        ........        ........        ........        ........",
"        ........        ........        ........        ........",
"        ........        ........        ........        ........",
"        ........        ........        ........        ........",
"        ........        ........        ........        ........",
"        ........        ........        ........        ........",
"........        ........        ........        ........        ",
"........        ........        ........        ........        ",
"........        ........        ........        ........        ",
"........        ........        ........        ........        ",
"........        ........        ........        ........        ",
"........        ........        ........        ........        ",
"........        ........        ........        ........        ",
"........        ........        ........        ........        ",
"        ........        ........        ........        ........",
"        ........        ........        ........        ........",
"        ........        ........        ........        ........",
"        ........        ........        ........        ........",
"        ........        ........        ........        ........",
"        ........        ........        ........        ........",
"        ........        ........        ........        ........",
"        ........        ........        ........        ........",
"........        ........        ........        ........        ",
"........        ........        ........        ........        ",
"........        ........        ........        ........        ",
"........        ........        ........        ........        ",
"........        ........        ........        ........        ",
"........        ........        ........        ........        ",
"........        ........        ........        ........        ",
"........        ........        ........        ........        ",
"        ........        ........        ........        ........",
"        ........        ........        ........        ........",
"        ........        ........        ........        ........",
"        ........        ........        ........        ........",
"        ........        ........        ........        ........",
"        ........        ........        ........        ........",
"        ........        ........        ........        ........",
"        ........        ........        ........        ........",
"........        ........        ........        ........        ",
"........        ........        ........        ........        ",
"........        ........        ........        ........        ",
"........        ........        ........        ........        ",
"........        ........        ........        ........        ",
"........        ........        ........        ........        ",
"........        ........        ........        ........        ",
"........        ........        ........        ........        ",
"        ........        ........        ........        ........",
"        ........        ........        ........        ........",
"        ........        ........        ........        ........",
"        ........        ........        ........        ........",
"        ........        ........        ........        ........",
"        ........        ........        ........        ........",
"        ........        ........        ........        ........",
"        ........        ........        ........        ........",
"........        ........        ........        ........        ",
"........        ........        ........        ........        ",
"........        ........        ........        ........        ",
"........        ........        ........        ........        ",
"........        ........        ........        ........        ",
"........        ........        ........        ........        ",
"........        ........        ........        ........        ",
"........        ........        ........        ........        "
};
