/* XPM */
static char *b3ffa284b6704cd8e96e753e39cdffaapVriPGLr1XbfImSv[] = {
/* columns rows colors chars-per-pixel */
"64 64 2 1 ",
"  c black",
". c #D200FF",
/* pixels */
"        ........        ........        ........        ........",
"        ........        ........        ........        ........",
"        ........        ........        ........        ........",
"        ........        ........        ........        ........",
"        ........        ........        ........        ........",
"        ........        ........        ........        ........",
"        ........        ........        ........        ........",
"        ........        ........        ........        ........",
"........        ........        ........        ........        ",
"........        ........        ........        ........        ",
"........        ........        ........        ........        ",
"........        ........        ........        ........        ",
"........        ........        ........        ........        ",
"........        ........        ........        ........        ",
"........        ........        ........        ........        ",
"........        ........        ........        ........        ",
"        ........        ........        ........        ........",
"        ........        ........        ........        ........",
"        ........        ........        ........        ........",
"        ........        ........        ........        ........",
"        ........        ........        ........        ........",
"        ........        ........        ........        ........",
"        ........        ........        ........        ........",
"        ........        ........        ........        ........",
"........        ........        ........        ........        ",
"........        ........        ........        ........        ",
"........        ........        ........        ........        ",
"........        ........        ........        ........        ",
"........        ........        ........        ........        ",
"........        ........        ........        ........        ",
"........        ........        ........        ........        ",
"........        ........        ........        ........        ",
"        ........        ........        ........        ........",
"        ........        ........        ........        ........",
"        ........        ........        ........        ........",
"        ........        ........        ........        ........",
"        ........        ........        ........        ........",
"        ........        ........        ........        ........",
"        ........        ........        ........        ........",
"        ........        ........        ........        ........",
"........        ........        ........        ........        ",
"........        ........        ........        ........        ",
"........        ........        ........        ........        ",
"........        ........        ........        ........        ",
"........        ........        ........        ........        ",
"........        ........        ........        ........        ",
"........        ........        ........        ........        ",
"........        ........        ........        ........        ",
"        ........        ........        ........        ........",
"        ........        ........        ........        ........",
"        ........        ........        ........        ........",
"        ........        ........        ........        ........",
"        ........        ........        ........        ........",
"        ........        ........        ........        ........",
"        ........        ........        ........        ........",
"        ........        ........        ........        ........",
"........        ........        ........        ........        ",
"........        ........        ........        ........        ",
"........        ........        ........        ........        ",
"........        ........        ........        ........        ",
"........        ........        ........        ........        ",
"........        ........        ........        ........        ",
"........        ........        ........        ........        ",
"........        ........        ........        ........        "
};
