/* XPM */
static char *_fb17682fd1f4dbc8fb0da794ff39d43DGMShow0hkca0a0I[] = {
/* columns rows colors chars-per-pixel */
"64 64 84 1 ",
"  c #973434",
". c #FF8181",
"X c #F57A7A",
"o c #DB6666",
"O c #CC5B5B",
"+ c #BC4F4F",
"@ c #B24848",
"# c #B94D4D",
"$ c #C25252",
"% c #CA5A5A",
"& c #D76363",
"* c #EE7474",
"= c #F47878",
"- c #C15454",
"; c #983535",
": c #AE4646",
"> c #F97C7C",
", c #F07575",
"< c #9B3636",
"1 c #983434",
"2 c #A23B3B",
"3 c #AC4444",
"4 c #A13B3B",
"5 c #F27777",
"6 c #FB7D7D",
"7 c #A63F3F",
"8 c #A33D3D",
"9 c #FD7F7F",
"0 c #FA7D7D",
"q c #E87070",
"w c #A94141",
"e c #D86363",
"r c #9E3939",
"t c #E66F6F",
"y c #C85858",
"u c #DC6666",
"i c #AB4242",
"p c #D46161",
"a c #BB4F4F",
"s c #A94040",
"d c #E56D6D",
"f c #DF6969",
"g c #FB7E7E",
"h c #BD4F4F",
"j c #AB4343",
"k c #C55555",
"l c #E26A6A",
"z c #FC7E7E",
"x c #CB5A5A",
"c c #9B3737",
"v c #BB4E4E",
"b c #E06969",
"n c #FF8080",
"m c #A84040",
"M c #EC7272",
"N c #D25F5F",
"B c #B54B4B",
"V c #9C3737",
"C c #ED7373",
"Z c #EB7272",
"A c #CA5959",
"S c #993535",
"D c #DA6565",
"F c #CD5B5B",
"G c #E86F6F",
"H c #F17676",
"J c #AD4444",
"K c #EF7575",
"L c #A03A3A",
"P c #B44949",
"I c #A33C3C",
"U c #C05353",
"Y c #DD6868",
"T c #D46060",
"R c #F37878",
"E c #AC4343",
"W c #9C3838",
"Q c #C65656",
"! c #F47979",
"~ c #F97D7D",
"^ c #EA7171",
"/ c #CE5C5C",
"( c #E46D6D",
") c #FE7F7F",
/* pixels */
"                                                                ",
"                                                                ",
"                                                                ",
"                                                                ",
"                                                                ",
"                                                                ",
"                                                                ",
"                                                                ",
"        ................................................        ",
"        ................................................        ",
"        ................................................        ",
"        ................................................        ",
"        ................................................        ",
"        ................................................        ",
"        ................................................        ",
"        ................................................        ",
"        ................................................        ",
"        ................................................        ",
"        ................................................        ",
"        ................................................        ",
"        ................................................        ",
"        ................................................        ",
"        ................................................        ",
"        ................................................        ",
"        ................................................        ",
"        ................................................        ",
"        ................................................        ",
"        ................................................        ",
"        ................................................        ",
"        ................................................        ",
"        ................................................        ",
"        ................................................        ",
"        ................................................        ",
"        ................................................        ",
"        ................................................        ",
"        ................................................        ",
"        ................................................        ",
"        ................................................        ",
"        ................................................        ",
"        ................................................        ",
"        ................................................        ",
"        ................................................        ",
"        ................................................        ",
"        ................................................        ",
"        ................................................        ",
"        ................................................        ",
"        ................................................        ",
"        ................................................        ",
"        ................................................        ",
"        ................................................        ",
"        ................................................        ",
"        ................................................        ",
"        ................................................        ",
"        ................................................        ",
"        ................................................        ",
"        ................................................        ",
"                                                                ",
"                                                                ",
"                                                                ",
"                                                                ",
"                                                                ",
"                                                                ",
"                                                                ",
"                                                                "
};
