/* XPM */
static char *_586f9aad8584c8d8d3c1e4e593c2016YGdDg21FIk4N95rH[] = {
/* columns rows colors chars-per-pixel */
"64 64 106 2 ",
"   c #A76CC0",
".  c #DF93FF",
"X  c #D28AF1",
"o  c #D189EF",
"O  c #DB90FB",
"+  c #D78CF6",
"@  c #D68DF5",
"#  c #D78EF7",
"$  c #B476D0",
"%  c #C782E4",
"&  c #B274CE",
"*  c #B274CD",
"=  c #C882E6",
"-  c #C380E0",
";  c #B878D4",
":  c #C983E7",
">  c #DD91FD",
",  c #DC91FC",
"<  c #A66BBF",
"1  c #D28AF0",
"2  c #AA6DC4",
"3  c #BB7AD7",
"4  c #A76BC0",
"5  c #D088EE",
"6  c #CF88ED",
"7  c #AC6FC5",
"8  c #DE93FE",
"9  c #A86CC1",
"0  c #D58BF4",
"q  c #AB6FC6",
"w  c #B978D5",
"e  c #A86CC2",
"r  c #C17EDE",
"t  c #C17EDD",
"y  c #B979D6",
"u  c #B475CF",
"i  c #C681E4",
"p  c #D88DF7",
"a  c #C882E5",
"s  c #B576D1",
"d  c #B373CD",
"f  c #B273CD",
"g  c #C884E6",
"h  c #C27FE0",
"j  c #CA84E7",
"k  c #D58CF5",
"l  c #C37FE0",
"z  c #D78EF6",
"x  c #AA6EC3",
"c  c #BB7AD8",
"v  c #D289F0",
"b  c #CF88EE",
"n  c #D58CF4",
"m  c #AD70C8",
"M  c #C17FDE",
"N  c #BA79D6",
"B  c #B575D0",
"V  c #DA8FF9",
"C  c #B475CE",
"Z  c #B374CE",
"A  c #C984E7",
"S  c #B977D4",
"D  c #CA85E8",
"F  c #D48BF3",
"G  c #D78DF7",
"H  c #D189F0",
"J  c #BD7AD8",
"K  c #A96DC3",
"L  c #DE93FF",
"P  c #D088EF",
"I  c #AE70C8",
"U  c #B777D2",
"Y  c #C27EDF",
"T  c #C783E5",
"R  c #C580E3",
"E  c #C380E1",
"W  c #B979D5",
"Q  c #CB84E9",
"!  c #D38BF2",
"~  c #C07EDD",
"^  c #D289F1",
"/  c #BC7AD9",
"(  c #CE87EC",
")  c #D089EF",
"_  c #D68CF5",
"`  c #AE71C8",
"'  c #B776D2",
"]  c #C27FDF",
"[  c #C481E1",
"{  c #B072CB",
"}  c #CA84E8",
"|  c #BA78D6",
" . c #CB85E9",
".. c #BF7CDB",
"X. c #DC91FB",
"o. c #D38BF1",
"O. c #BE7CDA",
"+. c #CC86EB",
"@. c #A86DC2",
"#. c #DA8FFA",
"$. c #BC7BD8",
"%. c #B677D1",
"&. c #C480E0",
"*. c #AF71CA",
"=. c #CB84E8",
"-. c #BD7AD9",
/* pixels */
"                                                                                                                                ",
"                                                                                                                                ",
"                                                                                                                                ",
"                                                                                                                                ",
"                                                                                                                                ",
"                                                                                                                                ",
"                                                                                                                                ",
"                                                                                                                                ",
"                . . . . . . . . . . . . . . . . . . . . . . . . . . . . . . . . . . . . . . . . . . . . . . . .                 ",
"                . . . . . . . . . . . . . . . . . . . . . . . . . . . . . . . . . . . . . . . . . . . . . . . .                 ",
"                . . . . . . . . . . . . . . . . . . . . . . . . . . . . . . . . . . . . . . . . . . . . . . . .                 ",
"                . . . . . . . . . . . . . . . . . . . . . . . . . . . . . . . . . . . . . . . . . . . . . . . .                 ",
"                . . . . . . . . . . . . . . . . . . . . . . . . . . . . . . . . . . . . . . . . . . . . . . . .                 ",
"                . . . . . . . . . . . . . . . . . . . . . . . . . . . . . . . . . . . . . . . . . . . . . . . .                 ",
"                . . . . . . . . . . . . . . . . . . . . . . . . . . . . . . . . . . . . . . . . . . . . . . . .                 ",
"                . . . . . . . . . . . . . . . . . . . . . . . . . . . . . . . . . . . . . . . . . . . . . . . .                 ",
"                . . . . . . . . . . . . . . . . . . . . . . . . . . . . . . . . . . . . . . . . . . . . . . . .                 ",
"                . . . . . . . . . . . . . . . . . . . . . . . . . . . . . . . . . . . . . . . . . . . . . . . .                 ",
"                . . . . . . . . . . . . . . . . . . . . . . . . . . . . . . . . . . . . . . . . . . . . . . . .                 ",
"                . . . . . . . . . . . . . . . . . . . . . . . . . . . . . . . . . . . . . . . . . . . . . . . .                 ",
"                . . . . . . . . . X o o O . . . . . . . . . o o o + . . . . . . . . . @ o o # . . . . . . . . .                 ",
"                . . . . . . . . . $     % . . . . . . . . #       & . . . . . . . . . *     = . . . . . . . . .                 ",
"                . . . . . . . . . -     ; . . . . . . . . :         > . . . . . . . , <     + . . . . . . . . .                 ",
"                . . . . . . . . . 1     2 . . . . . . . . 3   4     5 . . . . . . . 6     7 . . . . . . . . . .                 ",
"                . . . . . . . . . 8 9     0 . . . . . . . q   w e   r . . . . . . . t     y . . . . . . . . . .                 ",
"                . . . . . . . . . . u     i . . . . . . p     a s   d . . . . . . . f     g . . . . . . . . . .                 ",
"                . . . . . . . . . . h     ; . . . . . . j     k l     > . . . . . , <     z . . . . . . . . . .                 ",
"                . . . . . . . . . . 1     x . . . . . . c   x . v     5 . . . . . b     q . . . . . . . . . . .                 ",
"                . . . . . . . . . . 8 9     n . . . . . m   ; . 8     M . . . . . r     N . . . . . . . . . . .                 ",
"                . . . . . . . . . . . B     % . . . . V     i . . C   Z . . . . . d     A . . . . . . . . . . .                 ",
"                . . . . . . . . . . . l     S . . . . D     F . . M     > . . . >       G . . . . . . . . . . .                 ",
"                . . . . . . . . . . . H     x . . . . J   K L . . 5     P . . . 5     q . . . . . . . . . . . .                 ",
"                . . . . . . . . . . . 8 9     k . . . I   U . . . > <   Y . . . M     3 . . . . . . . . . . . .                 ",
"                . . . . . . . . . . . . s     T . . V     R . . . . f   C . . . Z     A . . . . . . . . . . . .                 ",
"                . . . . . . . . . . . . E     W . . Q     ! . . . . ~     > . >       p . . . . . . . . . . . .                 ",
"                . . . . . . . . . . . . ^     x . . /   K L . . . . (     ) . P     q . . . . . . . . . . . . .                 ",
"                . . . . . . . . . . . . 8 9     _ . `   ' . . . . . , <   Y . ]     c . . . . . . . . . . . . .                 ",
"                . . . . . . . . . . . . . B     a V     [ . . . . . . {   u . u     } . . . . . . . . . . . . .                 ",
"                . . . . . . . . . . . . . [     |  .    X . . . . . . ..    X.      V . . . . . . . . . . . . .                 ",
"                . . . . . . . . . . . . . o.    x O.  e 8 . . . . . . +.    h     I . . . . . . . . . . . . . .                 ",
"                . . . . . . . . . . . . . 8 @.    K   B . . . . . . . #.    K     $.. . . . . . . . . . . . . .                 ",
"                . . . . . . . . . . . . . . %.        &.. . . . . . . . *.        =.. . . . . . . . . . . . . .                 ",
"                . . . . . . . . . . . . . . [         v . . . . . . . . -.        V . . . . . . . . . . . . . .                 ",
"                . . . . . . . . . . . . . . o.        8 . . . . . . . . Q       I . . . . . . . . . . . . . . .                 ",
"                . . . . . . . . . . . . . . . . . . . . . . . . . . . . . . . . . . . . . . . . . . . . . . . .                 ",
"                . . . . . . . . . . . . . . . . . . . . . . . . . . . . . . . . . . . . . . . . . . . . . . . .                 ",
"                . . . . . . . . . . . . . . . . . . . . . . . . . . . . . . . . . . . . . . . . . . . . . . . .                 ",
"                . . . . . . . . . . . . . . . . . . . . . . . . . . . . . . . . . . . . . . . . . . . . . . . .                 ",
"                . . . . . . . . . . . . . . . . . . . . . . . . . . . . . . . . . . . . . . . . . . . . . . . .                 ",
"                . . . . . . . . . . . . . . . . . . . . . . . . . . . . . . . . . . . . . . . . . . . . . . . .                 ",
"                . . . . . . . . . . . . . . . . . . . . . . . . . . . . . . . . . . . . . . . . . . . . . . . .                 ",
"                . . . . . . . . . . . . . . . . . . . . . . . . . . . . . . . . . . . . . . . . . . . . . . . .                 ",
"                . . . . . . . . . . . . . . . . . . . . . . . . . . . . . . . . . . . . . . . . . . . . . . . .                 ",
"                . . . . . . . . . . . . . . . . . . . . . . . . . . . . . . . . . . . . . . . . . . . . . . . .                 ",
"                . . . . . . . . . . . . . . . . . . . . . . . . . . . . . . . . . . . . . . . . . . . . . . . .                 ",
"                . . . . . . . . . . . . . . . . . . . . . . . . . . . . . . . . . . . . . . . . . . . . . . . .                 ",
"                                                                                                                                ",
"                                                                                                                                ",
"                                                                                                                                ",
"                                                                                                                                ",
"                                                                                                                                ",
"                                                                                                                                ",
"                                                                                                                                ",
"                                                                                                                                "
};
